<?xml version="1.0" standalone="no"?>
<!DOCTYPE svg PUBLIC "-//W3C//DTD SVG 20010904//EN"
 "http://www.w3.org/TR/2001/REC-SVG-20010904/DTD/svg10.dtd">
<svg version="1.0" xmlns="http://www.w3.org/2000/svg"
 width="200.000000pt" height="200.000000pt" viewBox="0 0 200.000000 200.000000"
 preserveAspectRatio="xMidYMid meet">
<metadata>
Created by potrace 1.14, written by Peter Selinger 2001-2017
</metadata>
<g transform="translate(0.000000,200.000000) scale(0.100000,-0.100000)"
fill="#000000" stroke="none">
<path d="M905 1872 c-78 -9 -206 -46 -283 -82 -48 -23 -89 -44 -92 -48 -3 -4
-24 -20 -47 -36 -55 -37 -203 -184 -203 -202 0 -2 -15 -27 -33 -56 -63 -99
-113 -255 -124 -383 -2 -33 -4 -64 -4 -70 0 -5 3 -31 5 -57 2 -32 0 -48 -8
-48 -7 0 -6 -3 2 -9 7 -4 15 -21 17 -37 2 -16 4 -29 5 -29 1 0 4 -11 7 -25 6
-34 9 -42 18 -62 4 -10 8 -29 9 -42 0 -13 4 -22 8 -20 5 4 28 -48 27 -63 -1
-3 4 -9 9 -12 17 -11 43 -71 36 -83 -4 -6 -3 -8 4 -4 6 3 19 -5 29 -20 10 -15
28 -36 41 -49 12 -12 22 -27 22 -34 0 -6 4 -11 8 -11 13 0 81 -68 74 -74 -3
-3 3 -6 13 -6 10 0 25 -8 34 -18 9 -9 30 -25 46 -34 17 -10 29 -22 28 -27 -2
-6 4 -8 12 -5 8 4 15 1 15 -5 0 -6 3 -10 8 -10 22 4 42 -2 37 -11 -3 -6 1 -7
9 -4 9 3 16 1 16 -5 0 -6 3 -10 8 -9 19 4 61 -15 55 -26 -4 -6 0 -5 9 2 9 7
19 9 22 4 3 -5 35 -15 71 -22 36 -7 63 -16 60 -20 -3 -5 -1 -12 5 -15 6 -4 9
-1 8 6 -2 10 12 13 53 12 32 0 61 -3 65 -5 5 -3 18 -4 29 -1 22 4 69 11 125
17 19 2 43 7 52 11 9 3 22 8 30 9 7 2 20 6 29 10 9 4 29 8 44 10 15 2 31 9 36
17 5 8 9 10 9 4 0 -7 3 -7 8 0 4 6 18 16 31 23 19 11 22 11 16 0 -5 -7 2 -3
14 10 20 20 34 26 54 23 5 -1 6 2 4 6 -3 5 16 23 41 42 25 19 42 29 39 24 -3
-5 0 -10 7 -10 8 0 12 6 10 12 -3 7 11 28 31 48 19 19 35 32 35 28 1 -3 8 7
16 23 13 23 18 26 26 15 8 -11 9 -11 5 2 -3 10 11 39 33 70 22 30 40 58 40 62
0 4 8 19 17 34 10 14 18 31 20 37 8 35 41 115 45 111 3 -3 4 7 2 22 -1 15 1
32 6 38 9 11 10 15 10 46 0 13 4 18 13 13 9 -6 9 -5 0 7 -6 8 -9 30 -6 49 8
58 2 172 -12 230 -3 14 -8 36 -11 50 -9 46 -45 135 -86 210 -145 271 -427 445
-733 453 -55 2 -113 1 -130 -1z"/>
</g>
</svg>
